# xmcd CD database file
#
# Track frame offsets:
#	150
#	13865
#	35417
#	48591
#	68587
#	77947
#	94852
#	104567
#	114278
#	125793
#	138043
#	152758
#	166913
#	180972
#	212206
#	217500
#	230208
#	244350
#	257521
#
# Disc length: 3533 seconds
#
# Revision: 0
# Processed by: cddbd v1.5.2PL0 Copyright (c) Steve Scherf et al.
# Submitted via: CDex 1.70beta2
#
DISCID=040dcb13
DTITLE=Ana Nicosia - Anarpana
DYEAR=1900
DGENRE=New Age
TTITLE0=Amanecer
TTITLE1=Nostalgias de Primavera
TTITLE2=Amigos para siempre
TTITLE3=El bosque también llora
TTITLE4=Ensueño
TTITLE5=Si pudiera
TTITLE6=Hombre solitario
TTITLE7=El día de la esperanza
TTITLE8=Viejo de amor
TTITLE9=Llamado del cielo
TTITLE10=Aves de paso
TTITLE11=Sol de la mañana
TTITLE12=Los indios pasan al son
TTITLE13=Ablandando piedras
TTITLE14=De la mañana
TTITLE15=De rama en rama
TTITLE16=¿Quén dijo que crecer no duele?
TTITLE17=Para siempre
TTITLE18=Azul final
EXTD=
EXTT0=
EXTT1=
EXTT2=
EXTT3=
EXTT4=
EXTT5=
EXTT6=
EXTT7=
EXTT8=
EXTT9=
EXTT10=
EXTT11=
EXTT12=
EXTT13=
EXTT14=
EXTT15=
EXTT16=
EXTT17=
EXTT18=
PLAYORDER=
